<?xml version="1.0" encoding="UTF-8"?>
<svg id="Layer_2" data-name="Layer 2" xmlns="http://www.w3.org/2000/svg" viewBox="0 0 300 153.2">
  <defs>
    <style>
      .cls-1 {
        fill: #4797b9;
      }

      .cls-2 {
        fill: #e64924;
      }

      .cls-3 {
        fill: #fff;
      }

      .cls-4 {
        fill: #edb01e;
      }

      .cls-5 {
        fill: #e32027;
      }

      .cls-6 {
        fill: #8fc23e;
      }

      .cls-7 {
        fill: #1b1716;
      }

      .cls-8 {
        fill: #10100f;
      }

      .cls-9 {
        fill: #214080;
      }
    </style>
  </defs>
  <g id="Layer_1-2" data-name="Layer 1">
    <g>
      <rect class="cls-3" width="300" height="153.2" rx="20" ry="20"/>
      <g>
        <g>
          <rect class="cls-2" x="67.99" y="118.96" width="170.71" height="18.35"/>
          <g>
            <path class="cls-3" d="M82.49,131.11l-.54-2.44h-3.37l-1.58,2.44h-.76l4.64-7.27h.81l1.58,7.27h-.79Zm-1.37-6.44l-2.13,3.34h2.82l-.69-3.34Z"/>
            <path class="cls-3" d="M93.98,131.11l.66-3.11c.11-.52,.09-.94-.07-1.25-.18-.35-.52-.53-1.02-.53s-.91,.18-1.24,.53c-.29,.31-.49,.73-.6,1.25l-.66,3.11h-.69l.66-3.11c.11-.52,.09-.94-.07-1.25-.18-.35-.51-.53-1.01-.53s-.92,.18-1.25,.53c-.29,.31-.49,.73-.6,1.25l-.66,3.11h-.69l1.14-5.37h.69l-.13,.62c.43-.5,.97-.76,1.62-.76,.82,0,1.35,.34,1.59,1.03,.58-.69,1.25-1.03,2.02-1.03,.67,0,1.15,.22,1.45,.67,.28,.42,.35,.97,.21,1.65l-.68,3.19h-.69Z"/>
            <path class="cls-3" d="M101.8,128.68h-4.89c-.09,.53,.04,.98,.37,1.37,.33,.38,.76,.57,1.29,.57,.42,0,.83-.11,1.23-.34,.42-.23,.74-.54,.96-.93h.73c-.32,.56-.76,1.02-1.32,1.37s-1.13,.52-1.73,.52c-.77,0-1.38-.28-1.81-.83-.43-.55-.56-1.21-.4-1.98,.17-.77,.58-1.43,1.24-1.99,.67-.56,1.39-.84,2.15-.84s1.38,.29,1.81,.86c.42,.57,.55,1.24,.39,2.02l-.05,.2Zm-.57-.62c.02-.53-.12-.97-.44-1.31-.32-.35-.74-.52-1.27-.52s-1.03,.17-1.5,.52c-.46,.34-.79,.78-.99,1.31h4.19Z"/>
            <path class="cls-3" d="M109.57,131.11l.66-3.11c.11-.52,.09-.94-.07-1.25-.18-.35-.52-.53-1.02-.53s-.91,.18-1.24,.53c-.29,.31-.49,.73-.6,1.25l-.66,3.11h-.69l.66-3.11c.11-.52,.09-.94-.07-1.25-.18-.35-.51-.53-1.01-.53s-.92,.18-1.25,.53c-.29,.31-.49,.73-.6,1.25l-.66,3.11h-.69l1.14-5.37h.69l-.13,.62c.42-.5,.97-.76,1.62-.76,.82,0,1.35,.34,1.59,1.03,.57-.69,1.25-1.03,2.02-1.03,.67,0,1.15,.22,1.45,.67,.28,.42,.35,.97,.21,1.65l-.68,3.19h-.69Z"/>
            <path class="cls-3" d="M116.56,130.43c-.67,.54-1.41,.81-2.22,.81-.9,0-1.53-.36-1.86-1.07h-.02l-.2,.94h-.69l1.54-7.27h.69l-.6,2.84h.02c.66-.72,1.43-1.08,2.32-1.08,.8,0,1.42,.27,1.86,.8,.45,.54,.6,1.21,.43,2.01-.17,.8-.6,1.48-1.27,2.02Zm.29-3.58c-.33-.42-.81-.63-1.44-.63s-1.16,.22-1.67,.66c-.5,.43-.82,.95-.95,1.55-.13,.6-.03,1.12,.29,1.54,.33,.43,.79,.65,1.4,.65s1.2-.21,1.7-.62c.51-.42,.83-.94,.96-1.56,.14-.64,.05-1.16-.28-1.59Z"/>
            <path class="cls-3" d="M124.07,128.68h-4.89c-.09,.53,.04,.98,.37,1.37,.33,.38,.76,.57,1.29,.57,.42,0,.83-.11,1.23-.34,.41-.23,.74-.54,.96-.93h.73c-.32,.56-.76,1.02-1.32,1.37s-1.13,.52-1.73,.52c-.77,0-1.38-.28-1.81-.83-.43-.55-.56-1.21-.4-1.98,.17-.77,.58-1.43,1.24-1.99,.67-.56,1.38-.84,2.15-.84s1.38,.29,1.81,.86c.43,.57,.55,1.24,.39,2.02l-.05,.2Zm-.57-.62c.02-.53-.12-.97-.44-1.31-.32-.35-.74-.52-1.28-.52s-1.03,.17-1.5,.52c-.46,.34-.79,.78-.99,1.31h4.19Z"/>
            <path class="cls-3" d="M127.84,126.33c-1.04,.08-1.67,.63-1.88,1.64l-.67,3.14h-.69l1.14-5.37h.69l-.16,.78h.02c.21-.32,.46-.56,.76-.7,.24-.12,.56-.19,.95-.22l-.15,.73Z"/>
            <path class="cls-3" d="M134.98,130.41c-.67,.56-1.39,.83-2.16,.83s-1.36-.27-1.79-.82c-.44-.55-.58-1.2-.42-1.96,.17-.78,.58-1.45,1.24-2.01,.67-.57,1.39-.85,2.17-.85s1.36,.28,1.8,.83c.44,.56,.58,1.22,.41,1.98-.16,.77-.58,1.43-1.25,1.98Zm.28-3.54c-.33-.43-.78-.65-1.37-.65s-1.15,.22-1.66,.67c-.5,.43-.81,.95-.94,1.56-.13,.59-.03,1.1,.29,1.52,.32,.43,.78,.65,1.37,.65s1.16-.22,1.67-.66c.49-.43,.79-.95,.93-1.57,.12-.59,.03-1.1-.29-1.52Z"/>
            <path class="cls-3" d="M138.78,126.36l-1.01,4.75h-.69l1.01-4.75h-.83l.13-.62h.83l.05-.2c.02-.08,.04-.14,.06-.2,.05-.15,.1-.28,.15-.4,.21-.44,.53-.76,.94-.96,.34-.16,.77-.25,1.28-.25l-.14,.64c-.92,0-1.47,.45-1.66,1.35v.04s1.37,0,1.37,0l-.13,.62h-1.38Z"/>
            <path class="cls-3" d="M142.83,131.11l1.54-7.27h4.04l-.35,1.63h-2.26l-.24,1.13h2.19l-.35,1.63h-2.19l-.27,1.25h2.26l-.34,1.63h-4.04Z"/>
            <path class="cls-3" d="M155.72,131.24c-.21,.01-.37,.02-.47,.02-.33,0-.62-.04-.89-.13-.32-.1-.55-.25-.7-.45-.69,.38-1.41,.57-2.16,.57-1.05,0-1.87-.36-2.47-1.08-.61-.73-.8-1.62-.58-2.67,.22-1.06,.79-1.96,1.69-2.7,.89-.73,1.87-1.1,2.94-1.1s1.88,.35,2.49,1.06c.62,.72,.82,1.61,.6,2.65-.17,.81-.52,1.51-1.04,2.1,.19,.22,.49,.31,.9,.24l-.31,1.48Zm-3.32-2.25c-.12-.15-.23-.27-.36-.37-.29-.23-.64-.34-1.04-.34-.2,0-.43,.04-.68,.12,.17,.82,.68,1.23,1.51,1.23,.33,0,.63-.06,.88-.19-.11-.18-.22-.33-.31-.45Zm1.67-3.07c-.3-.39-.74-.58-1.32-.58-.53,0-1.01,.18-1.44,.53-.4,.33-.71,.76-.92,1.3,.22-.09,.4-.15,.54-.18,.18-.04,.36-.07,.54-.07,.51,0,.98,.15,1.41,.46,.37,.27,.69,.62,.96,1.07,.23-.28,.38-.64,.47-1.07,.12-.59,.04-1.08-.25-1.47Z"/>
            <path class="cls-3" d="M159.94,131.11l.12-.58h-.02c-.19,.28-.43,.48-.71,.6-.24,.11-.53,.16-.86,.16-.69,0-1.18-.23-1.46-.68-.15-.26-.23-.52-.24-.8,0-.21,.03-.5,.11-.89l.69-3.26h1.63l-.64,3.01c-.07,.35-.07,.61,0,.78,.09,.21,.3,.31,.64,.31,.62,0,1.01-.37,1.17-1.11l.64-2.99h1.63l-1.16,5.45h-1.54Z"/>
            <path class="cls-3" d="M168.54,128.88h-4.08c-.05,.69,.31,1.03,1.05,1.03,.39,0,.76-.17,1.1-.51h1.67c-.36,.57-.81,1.02-1.33,1.35-.56,.35-1.14,.53-1.73,.53-.8,0-1.41-.28-1.85-.85-.45-.56-.59-1.24-.42-2.04,.17-.8,.59-1.48,1.27-2.06,.68-.58,1.42-.87,2.21-.87s1.45,.29,1.88,.87c.42,.57,.54,1.27,.36,2.1-.04,.16-.08,.3-.13,.43Zm-1.36-1.1c0-.62-.35-.93-1.04-.93s-1.17,.31-1.44,.93h2.47Z"/>
            <path class="cls-3" d="M172.45,130.83c-.49,.31-1.03,.47-1.62,.47s-1.06-.15-1.39-.46c-.36-.32-.51-.77-.45-1.35h1.62c-.02,.34,.15,.5,.51,.5,.14,0,.27-.04,.4-.11,.14-.08,.23-.19,.26-.32,.04-.17-.02-.31-.17-.42l-.22-.11-.87-.34c-.35-.14-.61-.31-.78-.51-.22-.26-.29-.56-.22-.91,.12-.54,.43-.98,.94-1.32,.47-.32,.99-.47,1.55-.47s1.01,.14,1.32,.43c.33,.3,.46,.73,.4,1.29h-1.6c.05-.27-.09-.41-.42-.41-.31,0-.49,.12-.55,.36-.04,.18,.08,.33,.34,.45,.09,.04,.22,.09,.4,.15,.02,0,.04,0,.06,.02l.41,.14c.18,.06,.34,.13,.46,.2,.16,.09,.28,.19,.37,.3,.23,.27,.3,.62,.21,1.05-.13,.58-.46,1.04-.99,1.39Z"/>
            <path class="cls-3" d="M176.75,126.9l-.9,4.21h-1.63l.9-4.21h-.8l.26-1.24h.8l.38-1.82h1.63l-.38,1.82h.79l-.26,1.24h-.79Z"/>
            <path class="cls-3" d="M180.44,131.11l1.54-7.27h4.03l-.34,1.63h-2.26l-.24,1.13h2.19l-.34,1.63h-2.19l-.27,1.25h2.26l-.34,1.63h-4.04Z"/>
            <path class="cls-3" d="M189.67,131.11l.13-.59h-.02c-.22,.27-.5,.47-.83,.6-.28,.11-.6,.17-.96,.17-.81,0-1.42-.28-1.81-.85-.37-.55-.47-1.24-.3-2.06,.17-.81,.56-1.49,1.16-2.04,.63-.57,1.35-.86,2.15-.86,.65,0,1.13,.22,1.47,.65l.48-2.28h1.63l-1.55,7.27h-1.55Zm.42-3.72c-.21-.26-.51-.39-.9-.39s-.75,.13-1.07,.38c-.32,.26-.52,.59-.61,.98-.09,.4-.03,.73,.17,1,.2,.27,.5,.4,.9,.4s.77-.13,1.09-.4c.31-.27,.51-.6,.6-1,.08-.39,.02-.72-.18-.98Z"/>
            <path class="cls-3" d="M195.9,131.11l.12-.58h-.02c-.19,.28-.43,.48-.71,.6-.24,.11-.53,.16-.86,.16-.69,0-1.18-.23-1.46-.68-.15-.26-.23-.52-.24-.8,0-.21,.03-.5,.11-.89l.69-3.26h1.63l-.64,3.01c-.07,.35-.07,.61,0,.78,.09,.21,.3,.31,.64,.31,.62,0,1.01-.37,1.17-1.11l.64-2.99h1.63l-1.16,5.45h-1.54Z"/>
            <path class="cls-3" d="M204.56,129.04c-.3,.66-.76,1.21-1.38,1.62-.62,.42-1.27,.62-1.96,.62-.81,0-1.44-.28-1.88-.85-.45-.56-.58-1.25-.41-2.07,.17-.81,.59-1.49,1.27-2.05,.68-.57,1.42-.85,2.23-.85,.71,0,1.28,.21,1.73,.63,.45,.42,.68,.98,.67,1.66h-1.65c-.13-.51-.48-.77-1.05-.77-.38,0-.72,.14-1.01,.42-.28,.26-.46,.58-.54,.97-.08,.39-.04,.72,.14,.98,.19,.27,.48,.4,.86,.4,.53,0,.98-.24,1.33-.72h1.66Z"/>
            <path class="cls-3" d="M209.11,131.11l.12-.59h-.02c-.19,.26-.46,.46-.81,.6-.3,.12-.61,.18-.94,.18-.82,0-1.43-.28-1.82-.85-.37-.55-.47-1.24-.3-2.07,.17-.81,.57-1.5,1.19-2.05,.64-.57,1.36-.86,2.17-.86,.33,0,.61,.06,.86,.18,.28,.13,.47,.33,.56,.58h.02l.12-.58h1.63l-1.16,5.45h-1.63Zm.4-3.72c-.2-.26-.5-.39-.9-.39s-.75,.14-1.06,.41c-.3,.27-.5,.6-.58,.99-.08,.38-.02,.7,.18,.97,.21,.27,.5,.4,.88,.4s.75-.13,1.06-.4c.31-.26,.51-.6,.59-.99,.09-.4,.03-.73-.18-.99Z"/>
            <path class="cls-3" d="M214.77,126.9l-.9,4.21h-1.63l.9-4.21h-.8l.26-1.24h.8l.38-1.82h1.63l-.38,1.82h.79l-.26,1.24h-.78Z"/>
            <path class="cls-3" d="M215.36,131.11l1.16-5.45h1.63l-1.16,5.45h-1.63Zm1.28-6.02l.26-1.24h1.63l-.26,1.24h-1.63Z"/>
            <path class="cls-3" d="M223.08,130.46c-.67,.55-1.43,.82-2.27,.82s-1.48-.28-1.92-.82c-.44-.55-.58-1.24-.4-2.07,.18-.83,.61-1.53,1.28-2.08,.67-.55,1.43-.82,2.27-.82s1.48,.27,1.92,.82c.45,.55,.58,1.24,.4,2.08-.18,.83-.6,1.52-1.28,2.07Zm-.51-3.03c-.2-.27-.48-.41-.85-.41s-.71,.14-1.02,.41c-.3,.27-.5,.59-.57,.96-.08,.37-.02,.69,.17,.96,.19,.27,.47,.41,.84,.41s.72-.14,1.03-.41c.3-.27,.49-.59,.57-.96,.08-.38,.03-.7-.16-.96Z"/>
            <path class="cls-3" d="M228.11,131.11l.63-2.98c.08-.35,.08-.62,.01-.79-.08-.22-.29-.34-.63-.34-.36,0-.63,.11-.82,.33-.16,.18-.28,.45-.36,.81l-.63,2.96h-1.63l1.16-5.45h1.52l-.12,.58h.02c.42-.51,.97-.77,1.64-.77,.55,0,.98,.16,1.29,.47,.2,.2,.31,.46,.34,.8,.03,.26,0,.58-.08,.95l-.72,3.41h-1.63Z"/>
          </g>
        </g>
        <g>
          <path class="cls-5" d="M120.02,65.47s-2.68,1.67-.65,3.93c0,0,2.91,2.12,5.44,0,0,0,1.71-1.71,.37-3.93,0,0-2.62-6.55-13.24-3.05-1.57,.52-3.11,1.47-4.56,3.19,0,0-2.4,2.78,1.02,6.01,0,0,3.14,2.86,5.81,3.78,0,0,6.27,2.59,6.83,3.32,0,0,3.83,2.14,.84,6.37-.59,.83-1.35,1.7-3.06,2.4,0,0-5.35,1.11-7.84-1.75,0,0-1.94-1.66-.37-3.41,0,0,2.27-.61,2.31-1.68,0,0,.83-3.43-3.88-2.84,0,0-3.67,.62-3.97,4.98,0,0-.01,3.22,3.14,5.72,0,0,2.03,1.94,5.17,2.21,0,0,5.81,.74,9.69-2.12,0,0,3.87-2.68,4.06-7.1,0,0,.18-5.17-5.54-7.38,0,0-13.01-3.51-9.73-7.47,0,0,1.98-2.27,5.58-2.27,0,0,3.66,.12,2.58,1.11"/>
          <path class="cls-9" d="M130.4,66.36l6.02-1.47,2.28,9.63s1.46-9.8,7.65-9.63c0,0,4.62-.62,6.51,4.81,0,0,1.61-6.15,6.02-7.26,0,0,8.62-2.5,8.62,6.86l-.98,21.71h-8.94s3.73-12.57,3.57-19.43c0,0,.49-5.22-2.28-1.8,0,0-2.76,8-2.6,14.2l-7.32,.33s.16-10.12-.82-12.9c0,0-3.42-5.55-5.37,.33,0,0-.98,17.14,.33,19.26h-9.27"/>
          <path class="cls-1" d="M175.3,62.2v4.33s10.97-2.78,11.74,6.49c0,0-6.03-3.3-11.13,0,0,0-7.26,4.64-5.1,12.52,0,0,1.65,6.35,9.12,5.1,0,0,4.17-.46,6.34-4.17l-.16,4.3h4.33s2.63-16.09,0-23c0,0-1.39-5.56-7.26-5.56"/>
          <path class="cls-6" d="M198.91,66.81s-6.89-.73-3.09-3.09c0,0,1.95-1.17,6.51-1.48v2.28s5.85-4.06,10.89-1.46c0,0,5.85,1.95,5.53,8.13,0,0-.23,2.37-1.5,3.7-.93,.97-3.33,1.42-4.02-.22,0,0-.53-1.01-.49-2.18,0,0,.75-6.99-5.97-5.53,0,0-3.14,1.47-3.14,6.51l-.16,12.19s2.59-.52,3.01,.62c.54,1.49-1.38,4.82-7.89,4.58,0,0-3.09,0-2.93-2.77,0,0-.32-2.11,2.11-1.79"/>
          <path class="cls-4" d="M221.92,51.75h-6.74v-7.18h6.74v-7.72h5.76v7.94h5.43v4.78l-6.3,.22v36.75h5.76v4.35h-7.18s-2.28-.51-2.5-2.7"/>
          <g>
            <path class="cls-2" d="M82.98,55.13c-.38-.47-.9-.83-1.52-1.01-.26-.08-.53-.11-.79-.12-.29-.04-.64-.08-1.09-.12,0,0-6.88-.75-12.17-4.34,0,0-.34-.24-.86-.44-.13-.06-.26-.11-.4-.15-.77-.23-1.55-.14-2.22,.18-.02,0-.03,.02-.05,.03-.11,.05-.21,.11-.31,.18,0,0-.01,0-.02,.01,0,0-.72,.39-1.12,1.32-.06,.13-.11,.26-.15,.39-.14,.47-.16,.94-.09,1.39,0,.07,.01,.12,.02,.19,0,0,.04,.28,.27,.71,.08,.16,.18,.32,.29,.46,.02,.03,.04,.06,.06,.08,0,.01,.02,.03,.03,.04,.68,.9,1.75,1.57,4.86,3.02,0,0,4.4,2.39,11.42,3.38,0,0,2.77,.44,4.04-1.48,0,0,.12-.2,.25-.52,.01-.03,.02-.05,.03-.08,.01-.03,.02-.07,.04-.11,.01-.04,.03-.08,.04-.12,.04-.12,.06-.24,.08-.37,.12-.66,.09-1.52-.51-2.33,0,0-.06-.07-.15-.17"/>
            <path class="cls-2" d="M102.31,35.96l-4.77,1.86-4.09-2.87c-2.52,1.33-4.25,3.97-4.25,7.02,0,4.38,3.55,7.93,7.93,7.93s7.93-3.55,7.93-7.93c0-2.4-1.07-4.55-2.76-6"/>
            <path class="cls-2" d="M124.52,47.65s-.06-.23-.21-.54c-.01-.03-.02-.05-.04-.08-.02-.03-.03-.07-.05-.1-.02-.04-.04-.08-.06-.12-.06-.11-.14-.21-.21-.31-.4-.54-1.04-1.1-2.04-1.22,0,0-.09,0-.23,0-.6-.04-1.22,.09-1.78,.42-.24,.14-.44,.3-.63,.49-.23,.18-.5,.41-.83,.71,0,0-5.26,4.5-11.5,5.89,0,0-.4,.08-.91,.32-.13,.05-.26,.11-.39,.19-.69,.4-1.16,1.03-1.39,1.74,0,.02-.01,.03-.02,.05-.03,.12-.06,.23-.08,.34,0,0,0,.01,0,.02,0,0-.21,.79,.19,1.72,.05,.13,.11,.25,.19,.37,.24,.42,.57,.76,.95,1.01,.05,.04,.1,.08,.15,.12,0,0,.23,.16,.71,.29,.18,.05,.35,.08,.54,.1,.03,0,.07,0,.1,.01,.02,0,.03,0,.05,0,1.12,.12,2.35-.2,5.52-1.47,0,0,4.75-1.57,10.29-6,0,0,2.22-1.71,1.69-3.96"/>
            <path class="cls-2" d="M99.6,55.42c-.19-.2-.38-.4-.59-.57-.01-.01-.03-.02-.04-.04,0,0-1.34-1.35-3.68-1.63-.32-.04-.64-.07-.97-.07-1.13,0-2.19,.27-3.14,.73-.14,.06-.27,.1-.41,.17,0,0-.6,.28-1.41,1.09-.31,.29-.59,.61-.84,.95-.05,.06-.1,.12-.14,.19-.02,.03-.05,.06-.06,.09-1.55,2.12-2.35,4.95-3.52,12.83,0,0-2.42,11.38,0,27.71,0,0,.84,6.46,5.97,8.03,0,0,.53,.15,1.33,.22,.06,0,.13,0,.2,.02,.09,0,.18,.01,.27,.01,.1,0,.21,.01,.31,.01,.29,0,.58-.02,.87-.06,1.56-.16,3.44-.79,4.85-2.67,0,0,.11-.17,.27-.44,.79-1.16,1.25-2.56,1.25-4.07,0-.64-.09-1.25-.25-1.84-.1-.67-.24-1.49-.46-2.5,0,0-2.89-15.84,1.65-30.02,0,0,.31-.91,.41-2.2,.05-.33,.08-.66,.08-1,0-1.86-.71-3.55-1.86-4.83-.03-.03-.06-.07-.09-.1"/>
            <path class="cls-7" d="M81.25,27.59l.74-1.76,15.67,11.01,19.3-7.51-18.18-13.45-18.76,8.29h18.94v.87h-18.85l-.06,2.34c-.99,.13-1.76,.97-1.76,2,0,.66,.33,1.25,.82,1.62l-4.71,17.16,6.64,1.31V31.25c.75-.29,1.29-1.02,1.29-1.88,0-.78-.45-1.45-1.09-1.79m16.29,10.22l-11.51-8.08-3.57,2.03,14.54,13.14,15.74-7.88-3.82-3.63-11.38,4.43Z"/>
          </g>
          <polyline class="cls-8" points="109.55 97.54 107.01 97.54 107.01 96.62 113.18 96.62 113.18 97.54 110.63 97.54 110.63 104.95 109.55 104.95"/>
          <path class="cls-8" d="M113.58,100.84c0-.7-.01-1.31-.05-1.87h.95l.04,1.17h.05c.27-.8,.93-1.31,1.66-1.31,.12,0,.21,.01,.31,.04v1.03c-.11-.03-.22-.04-.37-.04-.77,0-1.31,.58-1.46,1.4-.02,.15-.05,.32-.05,.51v3.19h-1.08"/>
          <path class="cls-8" d="M120.93,104.95l-.09-.75h-.04c-.33,.47-.97,.89-1.83,.89-1.21,0-1.83-.85-1.83-1.72,0-1.45,1.28-2.24,3.59-2.22v-.12c0-.49-.14-1.38-1.36-1.38-.56,0-1.14,.17-1.56,.44l-.25-.72c.49-.32,1.21-.53,1.96-.53,1.83,0,2.27,1.25,2.27,2.45v2.24c0,.52,.03,1.03,.1,1.43m-1.15-3.05c-1.19-.02-2.53,.19-2.53,1.35,0,.7,.47,1.04,1.03,1.04,.78,0,1.27-.49,1.45-1,.04-.11,.06-.23,.06-.34v-1.04h0Z"/>
          <path class="cls-8" d="M123.64,100.59c0-.62-.01-1.12-.05-1.62h.96l.06,.99h.03c.3-.57,.99-1.12,1.98-1.12,.83,0,2.11,.49,2.11,2.54v3.57h-1.09v-3.45c0-.96-.36-1.77-1.38-1.77-.72,0-1.27,.51-1.46,1.11-.05,.14-.07,.32-.07,.51v3.59h-1.09"/>
          <path class="cls-8" d="M130.42,103.84c.32,.21,.89,.43,1.43,.43,.79,0,1.16-.39,1.16-.89s-.31-.8-1.11-1.1c-1.08-.38-1.58-.98-1.58-1.69,0-.96,.78-1.75,2.06-1.75,.6,0,1.14,.17,1.47,.37l-.27,.79c-.23-.15-.67-.35-1.22-.35-.64,0-1,.37-1,.82,0,.49,.36,.72,1.14,1.01,1.04,.4,1.57,.91,1.57,1.8,0,1.05-.81,1.79-2.23,1.79-.66,0-1.26-.16-1.68-.41"/>
          <path class="cls-8" d="M135.63,104.95v-5.15h-.84v-.83h.84v-.28c0-.84,.19-1.61,.69-2.09,.41-.4,.95-.56,1.46-.56,.38,0,.72,.09,.93,.17l-.15,.84c-.16-.07-.38-.14-.69-.14-.93,0-1.16,.81-1.16,1.73v.32h1.45v.83h-1.45v5.15"/>
          <path class="cls-8" d="M144.44,101.91c0,2.21-1.53,3.18-2.98,3.18-1.62,0-2.87-1.19-2.87-3.08,0-2,1.31-3.17,2.96-3.17s2.88,1.25,2.88,3.07m-4.74,.06c0,1.31,.75,2.3,1.82,2.3s1.82-.98,1.82-2.32c0-1.01-.51-2.3-1.79-2.3-1.29,0-1.84,1.19-1.84,2.32"/>
          <path class="cls-8" d="M145.88,100.84c0-.7-.01-1.31-.05-1.87h.95l.04,1.17h.05c.27-.8,.93-1.31,1.65-1.31,.12,0,.21,.01,.31,.04v1.03c-.11-.03-.22-.04-.37-.04-.77,0-1.31,.58-1.46,1.4-.02,.15-.05,.32-.05,.51v3.19h-1.08"/>
          <path class="cls-8" d="M150.03,100.59c0-.62-.01-1.12-.05-1.62h.95l.05,.96h.04c.33-.57,.89-1.1,1.88-1.1,.82,0,1.43,.49,1.69,1.2h.03c.19-.33,.42-.59,.67-.78,.36-.27,.76-.42,1.32-.42,.79,0,1.97,.52,1.97,2.59v3.52h-1.06v-3.38c0-1.15-.42-1.84-1.3-1.84-.62,0-1.1,.46-1.29,.99-.05,.15-.08,.34-.08,.54v3.69h-1.06v-3.58c0-.95-.42-1.64-1.25-1.64-.68,0-1.17,.54-1.35,1.09-.06,.16-.09,.35-.09,.53v3.61h-1.06"/>
          <path class="cls-8" d="M161.62,97.29c.01,.37-.26,.67-.69,.67-.38,0-.65-.3-.65-.67s.28-.68,.68-.68c.41,0,.67,.29,.67,.68m-1.21,1.68h1.09v5.98h-1.09v-5.98Z"/>
          <path class="cls-8" d="M163.36,100.59c0-.62-.01-1.12-.05-1.62h.96l.06,.99h.03c.3-.57,.99-1.12,1.98-1.12,.83,0,2.11,.49,2.11,2.54v3.57h-1.09v-3.45c0-.96-.36-1.77-1.38-1.77-.72,0-1.27,.51-1.46,1.11-.05,.14-.07,.32-.07,.51v3.59h-1.09v-4.36"/>
          <path class="cls-8" d="M175.43,98.97c-.03,.43-.05,.92-.05,1.64v3.47c0,1.37-.27,2.21-.85,2.73-.58,.54-1.42,.72-2.18,.72-.72,0-1.51-.17-1.99-.49l.27-.83c.39,.25,1.01,.47,1.75,.47,1.11,0,1.93-.58,1.93-2.09v-.67h-.03c-.33,.55-.97,1-1.9,1-1.48,0-2.54-1.26-2.54-2.92,0-2.02,1.32-3.18,2.69-3.18,1.04,0,1.61,.54,1.87,1.04h.03l.05-.9m-.17,2.36c0-.19-.01-.35-.06-.49-.2-.63-.73-1.15-1.52-1.15-1.04,0-1.78,.88-1.78,2.26,0,1.17,.59,2.15,1.77,2.15,.67,0,1.27-.42,1.51-1.11,.06-.19,.09-.4,.09-.58v-1.08Z"/>
          <polyline class="cls-8" points="184.29 101.05 181.05 101.05 181.05 104.05 184.66 104.05 184.66 104.95 179.97 104.95 179.97 96.63 184.47 96.63 184.47 97.53 181.05 97.53 181.05 100.16 184.29 100.16"/>
          <path class="cls-8" d="M191.2,96.18v7.23c0,.53,.01,1.14,.05,1.54h-.97l-.05-1.04h-.03c-.33,.67-1.06,1.17-2.04,1.17-1.44,0-2.56-1.22-2.56-3.04-.01-1.99,1.22-3.21,2.68-3.21,.91,0,1.53,.43,1.8,.91h.03v-3.57m0,5.23c0-.14-.01-.32-.05-.46-.16-.69-.75-1.26-1.57-1.26-1.13,0-1.79,.99-1.79,2.31,0,1.21,.59,2.21,1.77,2.21,.73,0,1.4-.48,1.59-1.3,.04-.15,.05-.3,.05-.47v-1.04Z"/>
          <path class="cls-8" d="M198.07,103.32c0,.62,.01,1.16,.05,1.63h-.97l-.06-.98h-.03c-.28,.48-.91,1.11-1.98,1.11-.94,0-2.06-.52-2.06-2.62v-3.5h1.09v3.31c0,1.14,.35,1.9,1.33,1.9,.73,0,1.24-.51,1.43-.99,.06-.16,.1-.36,.1-.56v-3.67h1.09"/>
          <path class="cls-8" d="M204.2,104.73c-.28,.15-.92,.34-1.72,.34-1.8,0-2.98-1.22-2.98-3.05s1.26-3.17,3.21-3.17c.64,0,1.21,.16,1.51,.31l-.25,.84c-.26-.15-.67-.28-1.26-.28-1.37,0-2.11,1.01-2.11,2.26,0,1.38,.89,2.24,2.08,2.24,.62,0,1.03-.16,1.34-.29"/>
          <path class="cls-8" d="M208.85,104.95l-.09-.75h-.04c-.34,.47-.98,.89-1.83,.89-1.21,0-1.83-.85-1.83-1.72,0-1.45,1.28-2.24,3.6-2.22v-.12c0-.49-.14-1.38-1.36-1.38-.56,0-1.14,.17-1.56,.44l-.25-.72c.49-.32,1.21-.53,1.97-.53,1.83,0,2.27,1.25,2.27,2.45v2.24c0,.52,.02,1.03,.1,1.43m-1.15-3.05c-1.19-.02-2.53,.19-2.53,1.35,0,.7,.47,1.04,1.03,1.04,.78,0,1.27-.49,1.45-1,.04-.11,.06-.23,.06-.34v-1.04Z"/>
          <path class="cls-8" d="M212.82,97.25v1.72h1.56v.83h-1.56v3.22c0,.74,.21,1.16,.81,1.16,.28,0,.5-.04,.63-.07l.05,.82c-.21,.09-.54,.15-.96,.15-.51,0-.92-.16-1.17-.46-.31-.32-.42-.85-.42-1.56v-3.26h-.93v-.83h.93v-1.44"/>
          <path class="cls-8" d="M216.87,97.29c.01,.37-.26,.67-.69,.67-.38,0-.65-.3-.65-.67s.28-.68,.68-.68c.41,0,.66,.29,.66,.68m-1.21,1.68h1.09v5.98h-1.09v-5.98Z"/>
          <path class="cls-8" d="M224.03,101.91c0,2.21-1.53,3.18-2.98,3.18-1.62,0-2.87-1.19-2.87-3.08,0-2,1.31-3.17,2.97-3.17s2.88,1.25,2.88,3.07m-4.74,.06c0,1.31,.75,2.3,1.82,2.3s1.82-.98,1.82-2.32c0-1.01-.51-2.3-1.79-2.3-1.29,0-1.84,1.19-1.84,2.32"/>
          <path class="cls-8" d="M225.47,100.59c0-.62-.01-1.12-.05-1.62h.96l.06,.99h.02c.3-.57,.99-1.12,1.98-1.12,.83,0,2.11,.49,2.11,2.54v3.57h-1.09v-3.45c0-.96-.36-1.77-1.38-1.77-.72,0-1.27,.51-1.46,1.11-.05,.14-.07,.32-.07,.51v3.59h-1.09"/>
        </g>
      </g>
    </g>
  </g>
</svg>